<mxfile host="65bd71144e" modified="2021-01-06T03:42:53.763Z" agent="5.0 (Macintosh; Intel Mac OS X 11_1_0) AppleWebKit/537.36 (KHTML, like Gecko) Code-Insiders/1.53.0-insider Chrome/87.0.4280.88 Electron/11.1.0 Safari/537.36" version="13.10.0" etag="cQXML1fva1Kwg6F66xwN" type="embed">
    <diagram id="l8b_hHe4fI1ASE6apOzC" name="第 1 页">
        <mxGraphModel dx="645" dy="680" grid="1" gridSize="10" guides="1" tooltips="1" connect="1" arrows="1" fold="1" page="1" pageScale="1" pageWidth="827" pageHeight="1169" math="0" shadow="0">
            <root>
                <mxCell id="0"/>
                <mxCell id="1" parent="0"/>
                <mxCell id="42" value="Vertical Flow Layout" style="swimlane;html=1;startSize=20;horizontal=1;childLayout=flowLayout;flowOrientation=north;resizable=0;interRankCellSpacing=50;containerType=tree;" vertex="1" parent="1">
                    <mxGeometry x="110" y="250" width="270" height="280" as="geometry">
                        <mxRectangle x="110" y="250" width="150" height="20" as="alternateBounds"/>
                    </mxGeometry>
                </mxCell>
                <mxCell id="43" value="Start" style="whiteSpace=wrap;html=1;" vertex="1" parent="42">
                    <mxGeometry x="85" y="40" width="100" height="40" as="geometry"/>
                </mxCell>
                <mxCell id="44" value="Task" style="whiteSpace=wrap;html=1;" vertex="1" parent="42">
                    <mxGeometry x="20" y="130" width="100" height="40" as="geometry"/>
                </mxCell>
                <mxCell id="45" value="" style="html=1;curved=1;noEdgeStyle=1;orthogonal=1;" edge="1" parent="42" source="43" target="44">
                    <mxGeometry relative="1" as="geometry">
                        <Array as="points">
                            <mxPoint x="112.5" y="92"/>
                            <mxPoint x="70" y="118"/>
                        </Array>
                    </mxGeometry>
                </mxCell>
                <mxCell id="46" value="Task" style="whiteSpace=wrap;html=1;" vertex="1" parent="42">
                    <mxGeometry x="150" y="130" width="100" height="40" as="geometry"/>
                </mxCell>
                <mxCell id="47" value="" style="html=1;curved=1;noEdgeStyle=1;orthogonal=1;" edge="1" parent="42" source="43" target="46">
                    <mxGeometry relative="1" as="geometry">
                        <Array as="points">
                            <mxPoint x="157.5" y="92"/>
                            <mxPoint x="200" y="118"/>
                        </Array>
                    </mxGeometry>
                </mxCell>
                <mxCell id="48" value="End" style="whiteSpace=wrap;html=1;" vertex="1" parent="42">
                    <mxGeometry x="85" y="220" width="100" height="40" as="geometry"/>
                </mxCell>
                <mxCell id="49" value="" style="html=1;curved=1;noEdgeStyle=1;orthogonal=1;" edge="1" parent="42" source="44" target="48">
                    <mxGeometry relative="1" as="geometry">
                        <Array as="points">
                            <mxPoint x="70" y="182"/>
                            <mxPoint x="112.5" y="208"/>
                        </Array>
                    </mxGeometry>
                </mxCell>
                <mxCell id="50" value="" style="html=1;curved=1;noEdgeStyle=1;orthogonal=1;" edge="1" parent="42" source="46" target="48">
                    <mxGeometry relative="1" as="geometry">
                        <Array as="points">
                            <mxPoint x="200" y="182"/>
                            <mxPoint x="157.5" y="208"/>
                        </Array>
                    </mxGeometry>
                </mxCell>
            </root>
        </mxGraphModel>
    </diagram>
</mxfile>